{"glyphs":{"0":{"ha":938,"x_min":68,"x_max":869,"o":"m 832 776 q 868 640 868 714 l 868 282 q 825 131 868 200 q 793 90 811 108 q 786 83 790 88 q 765 64 776 74 q 761 60 764 63 q 756 57 760 58 l 756 56 l 754 56 q 749 51 751 53 q 740 46 746 49 l 740 46 q 733 42 736 43 q 726 37 729 39 q 718 32 722 35 q 713 29 715 31 q 686 18 700 24 q 679 15 683 17 q 660 10 669 13 q 651 7 657 8 l 651 7 q 643 6 646 6 q 640 6 642 6 l 639 6 q 625 3 633 4 q 622 3 624 3 q 606 0 614 1 q 588 0 597 0 l 351 0 q 213 36 276 0 q 204 42 208 39 q 113 131 149 75 q 106 143 110 138 q 69 282 69 207 l 69 640 q 106 778 69 714 q 113 790 110 785 q 211 885 151 850 q 325 919 265 915 q 331 921 328 921 q 351 921 340 921 q 371 921 361 921 l 568 921 q 588 921 576 921 q 607 921 597 921 q 613 919 610 921 q 726 885 674 915 q 825 790 788 850 q 832 778 829 785 l 832 776 m 665 640 q 646 692 665 669 q 597 718 626 714 l 576 718 l 575 717 l 363 717 l 361 718 l 340 718 q 292 692 311 714 q 272 640 272 669 l 272 282 q 295 226 272 249 q 351 203 318 203 l 588 203 q 642 226 619 203 q 665 282 665 249 l 665 640 z "},"1":{"ha":460,"x_min":69,"x_max":392,"o":"m 69 919 l 390 919 l 390 757 l 390 717 l 390 0 l 188 0 l 188 717 l 69 717 l 69 919 z "},"2":{"ha":967,"x_min":69,"x_max":899,"o":"m 351 203 l 897 203 l 897 0 l 351 0 q 210 38 276 0 q 107 142 144 76 q 69 281 69 206 q 107 419 69 356 q 210 523 144 485 q 351 561 276 561 l 615 561 q 672 584 649 561 q 694 640 694 607 q 672 695 694 672 q 615 718 649 718 l 69 718 l 69 921 l 615 921 q 756 883 690 921 q 860 779 822 844 q 897 640 897 715 q 860 500 897 565 q 818 444 843 469 q 615 360 735 360 l 351 360 q 296 336 319 360 q 272 281 272 313 q 296 226 272 249 q 351 203 319 203 z "},"3":{"ha":940,"x_min":69,"x_max":872,"o":"m 813 460 q 846 406 832 435 q 871 286 871 349 q 832 142 871 208 q 735 43 796 81 q 604 0 675 6 q 585 0 594 0 q 568 0 576 0 l 69 0 l 69 203 l 608 203 q 654 234 636 211 q 672 286 672 257 q 646 347 672 322 l 138 347 l 138 550 l 597 550 q 625 558 613 553 l 625 560 q 626 560 626 560 q 669 633 669 585 q 649 689 669 665 q 597 718 629 713 l 69 718 l 69 919 l 585 919 q 729 881 663 919 q 831 781 793 844 q 832 778 832 779 q 871 633 871 711 q 832 489 871 556 q 813 460 822 474 z "},"4":{"ha":896,"x_min":69,"x_max":828,"o":"m 624 921 l 826 921 l 826 0 l 624 0 l 624 358 l 69 358 l 69 921 l 272 921 l 272 561 l 624 561 l 624 921 z "},"5":{"ha":938,"x_min":69,"x_max":869,"o":"m 825 432 q 868 282 868 364 q 825 131 868 200 q 723 35 786 69 q 588 0 660 0 l 110 0 l 69 0 l 69 203 l 588 203 q 642 226 619 203 q 665 282 665 249 q 647 333 665 311 q 599 358 628 354 l 69 358 l 69 921 l 232 921 l 272 921 l 775 921 l 775 718 l 272 718 l 272 563 l 564 563 q 588 563 569 563 q 613 561 606 563 q 733 522 676 556 q 825 432 790 488 z "},"6":{"ha":938,"x_min":69,"x_max":869,"o":"m 825 432 q 868 282 868 364 q 825 131 868 200 q 723 35 786 69 q 588 0 660 0 l 351 0 q 281 14 324 0 q 200 53 239 28 q 72 246 83 125 q 69 282 69 269 l 69 640 q 122 814 69 736 q 329 921 194 921 l 825 921 l 865 921 l 865 718 l 825 718 q 339 717 378 717 q 291 691 310 713 q 272 640 272 669 l 272 551 q 326 561 299 560 l 326 561 l 332 563 l 333 563 q 351 563 342 563 l 588 563 q 613 561 600 563 q 733 522 676 556 q 825 432 790 488 m 665 282 q 647 332 665 310 q 599 358 628 354 l 368 358 q 351 358 360 358 q 338 358 344 358 q 291 332 310 354 q 272 282 272 310 q 295 226 272 249 q 351 203 318 203 l 588 203 q 642 226 619 203 q 665 282 665 249 z "},"7":{"ha":851,"x_min":69,"x_max":782,"o":"m 579 921 l 782 921 l 782 0 l 579 0 l 579 717 l 69 717 l 69 919 l 579 919 l 579 921 z "},"8":{"ha":989,"x_min":69,"x_max":919,"o":"m 919 636 q 857 460 919 538 q 919 283 919 382 q 881 142 919 207 q 779 39 843 76 q 636 0 713 0 l 353 0 q 197 47 268 0 q 104 147 139 85 q 69 283 69 210 q 132 460 69 382 q 69 636 69 538 q 104 772 69 710 q 197 874 139 835 q 353 919 268 919 l 636 919 q 779 881 713 919 q 881 778 843 843 q 919 636 919 714 m 654 707 l 335 707 q 296 681 311 700 q 281 636 281 661 q 296 592 281 611 q 335 567 311 572 l 350 567 q 352 567 351 567 q 353 567 353 567 l 636 567 q 637 567 636 567 q 639 567 638 567 l 654 567 q 693 592 678 572 q 708 636 708 611 q 693 681 708 661 q 654 707 678 700 m 335 213 l 654 213 q 693 239 678 219 q 708 283 708 258 q 693 328 708 308 q 654 353 678 347 l 335 353 q 296 328 311 347 q 281 283 281 308 q 296 239 281 258 q 335 213 311 219 z "},"9":{"ha":938,"x_min":69,"x_max":869,"o":"m 868 526 l 868 282 q 832 143 868 207 q 825 131 829 138 q 726 36 788 71 q 613 1 674 7 q 607 1 610 1 l 606 0 q 587 0 597 0 q 568 0 576 0 l 88 0 l 88 204 l 311 204 l 575 204 l 576 204 l 597 204 q 646 229 626 207 q 665 282 665 251 q 647 332 665 310 q 600 358 628 354 q 588 358 594 358 q 564 360 575 358 l 374 360 q 351 358 363 358 q 326 360 338 358 q 205 399 261 365 q 113 489 149 433 q 69 640 69 558 q 113 790 69 722 q 215 886 151 851 q 351 921 278 921 q 353 921 351 921 l 585 921 q 588 921 586 921 q 726 885 661 921 q 733 879 731 882 q 825 790 790 846 q 832 779 828 785 q 868 640 868 714 l 868 526 m 350 718 q 295 695 318 718 q 272 640 272 672 q 291 589 272 611 q 339 563 310 567 l 665 563 l 665 640 q 642 695 665 672 q 588 718 619 718 l 350 718 z "},"\u000b":{"ha":732,"x_min":69,"x_max":663,"o":"m 69 972 l 663 972 l 663 0 l 69 0 l 69 972 m 108 944 l 365 515 l 624 944 l 108 944 m 349 486 l 99 903 l 99 68 l 349 486 m 367 457 l 110 29 l 624 29 l 367 457 m 383 486 l 635 65 l 635 906 l 383 486 z "},"\f":{"ha":732,"x_min":69,"x_max":663,"o":"m 69 972 l 663 972 l 663 0 l 69 0 l 69 972 m 108 944 l 365 515 l 624 944 l 108 944 m 349 486 l 99 903 l 99 68 l 349 486 m 367 457 l 110 29 l 624 29 l 367 457 m 383 486 l 635 65 l 635 906 l 383 486 z "},"\"":{"ha":732,"x_min":69,"x_max":663,"o":"m 69 972 l 663 972 l 663 0 l 69 0 l 69 972 m 108 944 l 365 515 l 624 944 l 108 944 m 349 486 l 99 903 l 99 68 l 349 486 m 367 457 l 110 29 l 624 29 l 367 457 m 383 486 l 635 65 l 635 906 l 383 486 z "},"Æ":{"ha":732,"x_min":69,"x_max":663,"o":"m 69 972 l 663 972 l 663 0 l 69 0 l 69 972 m 108 944 l 365 515 l 624 944 l 108 944 m 349 486 l 99 903 l 99 68 l 349 486 m 367 457 l 110 29 l 624 29 l 367 457 m 383 486 l 635 65 l 635 906 l 383 486 z "},"Ð":{"ha":732,"x_min":69,"x_max":663,"o":"m 69 972 l 663 972 l 663 0 l 69 0 l 69 972 m 108 944 l 365 515 l 624 944 l 108 944 m 349 486 l 99 903 l 99 68 l 349 486 m 367 457 l 110 29 l 624 29 l 367 457 m 383 486 l 635 65 l 635 906 l 383 486 z "},"×":{"ha":732,"x_min":69,"x_max":663,"o":"m 69 972 l 663 972 l 663 0 l 69 0 l 69 972 m 108 944 l 365 515 l 624 944 l 108 944 m 349 486 l 99 903 l 99 68 l 349 486 m 367 457 l 110 29 l 624 29 l 367 457 m 383 486 l 635 65 l 635 906 l 383 486 z "},"Þ":{"ha":732,"x_min":69,"x_max":663,"o":"m 69 972 l 663 972 l 663 0 l 69 0 l 69 972 m 108 944 l 365 515 l 624 944 l 108 944 m 349 486 l 99 903 l 99 68 l 349 486 m 367 457 l 110 29 l 624 29 l 367 457 m 383 486 l 635 65 l 635 906 l 383 486 z "},"ß":{"ha":732,"x_min":69,"x_max":663,"o":"m 69 972 l 663 972 l 663 0 l 69 0 l 69 972 m 108 944 l 365 515 l 624 944 l 108 944 m 349 486 l 99 903 l 99 68 l 349 486 m 367 457 l 110 29 l 624 29 l 367 457 m 383 486 l 635 65 l 635 906 l 383 486 z "},"æ":{"ha":732,"x_min":69,"x_max":663,"o":"m 69 972 l 663 972 l 663 0 l 69 0 l 69 972 m 108 944 l 365 515 l 624 944 l 108 944 m 349 486 l 99 903 l 99 68 l 349 486 m 367 457 l 110 29 l 624 29 l 367 457 m 383 486 l 635 65 l 635 906 l 383 486 z "},"ð":{"ha":732,"x_min":69,"x_max":663,"o":"m 69 972 l 663 972 l 663 0 l 69 0 l 69 972 m 108 944 l 365 515 l 624 944 l 108 944 m 349 486 l 99 903 l 99 68 l 349 486 m 367 457 l 110 29 l 624 29 l 367 457 m 383 486 l 635 65 l 635 906 l 383 486 z "},"÷":{"ha":732,"x_min":69,"x_max":663,"o":"m 69 972 l 663 972 l 663 0 l 69 0 l 69 972 m 108 944 l 365 515 l 624 944 l 108 944 m 349 486 l 99 903 l 99 68 l 349 486 m 367 457 l 110 29 l 624 29 l 367 457 m 383 486 l 635 65 l 635 906 l 383 486 z "},"þ":{"ha":732,"x_min":69,"x_max":663,"o":"m 69 972 l 663 972 l 663 0 l 69 0 l 69 972 m 108 944 l 365 515 l 624 944 l 108 944 m 349 486 l 99 903 l 99 68 l 349 486 m 367 457 l 110 29 l 624 29 l 367 457 m 383 486 l 635 65 l 635 906 l 383 486 z "},"\u0000":{"ha":0,"x_min":0,"x_max":0,"o":""},"\n":{"ha":0,"x_min":0,"x_max":0,"o":""},"\r":{"ha":0,"x_min":0,"x_max":0,"o":""}," ":{"ha":600,"x_min":0,"x_max":0,"o":""},"!":{"ha":342,"x_min":69,"x_max":274,"o":"m 115 278 l 76 340 l 69 350 l 69 921 l 272 921 l 272 350 l 267 340 l 226 278 l 214 258 l 128 258 l 115 278 m 69 213 l 272 213 l 272 0 l 69 0 l 69 213 z "},"#":{"ha":985,"x_min":69,"x_max":915,"o":"m 740 708 l 915 708 l 915 506 l 740 506 l 740 415 l 915 415 l 915 213 l 740 213 l 740 0 l 536 0 l 536 213 l 447 213 l 447 0 l 244 0 l 244 213 l 69 213 l 69 415 l 244 415 l 244 506 l 69 506 l 69 708 l 244 708 l 244 926 l 447 926 l 447 708 l 536 708 l 536 926 l 740 926 l 740 708 m 536 506 l 447 506 l 447 415 l 536 415 l 536 506 z "},"$":{"ha":969,"x_min":69,"x_max":900,"o":"m 617 638 q 758 599 692 638 q 861 494 824 561 q 899 355 899 431 q 861 215 899 279 q 758 110 824 149 q 617 72 692 72 l 551 72 l 550 40 l 546 0 l 506 3 l 385 13 l 344 15 l 347 56 l 349 72 q 209 112 274 74 q 108 215 144 150 q 71 347 72 276 l 69 389 l 272 389 l 274 351 q 298 297 275 319 q 353 275 321 275 l 363 275 l 375 435 l 353 435 q 150 519 233 435 q 108 576 125 546 q 71 717 71 642 q 108 857 71 792 q 212 960 146 922 q 353 999 278 999 l 417 999 l 419 1040 l 422 1082 l 464 1078 l 585 1069 l 625 1067 l 622 1026 l 621 999 q 624 999 622 999 q 763 958 699 997 q 858 861 822 921 l 858 861 l 860 860 l 863 856 q 899 724 897 794 l 900 682 l 697 682 l 696 721 q 672 773 694 751 q 619 796 650 794 l 606 796 l 593 638 l 617 638 m 376 638 l 390 638 l 401 796 l 353 796 q 297 772 319 796 q 274 717 274 749 q 293 664 274 686 q 342 638 313 642 q 353 638 349 638 q 376 638 364 638 m 672 299 q 684 310 672 299 q 696 355 696 322 q 672 411 696 388 q 617 435 649 435 l 579 435 l 567 275 l 617 275 q 672 299 649 275 z "},"%":{"ha":979,"x_min":54,"x_max":924,"o":"m 829 924 l 800 865 l 386 26 l 375 4 l 149 4 l 178 63 l 592 901 l 603 924 l 829 924 m 408 816 q 422 782 408 816 q 408 681 436 749 q 313 586 381 614 q 178 586 246 558 q 83 681 111 614 q 83 816 56 749 q 178 911 111 883 q 313 911 246 939 q 408 816 381 883 m 889 93 q 872 61 889 93 q 785 8 854 29 q 651 21 715 -14 q 565 125 586 56 q 579 259 544 194 q 683 344 614 324 q 817 331 753 365 q 903 227 882 297 q 889 93 924 157 z "},"<":{"ha":557,"x_min":69,"x_max":489,"o":"m 421 840 l 488 900 l 488 629 l 475 617 l 375 529 l 475 442 l 488 429 l 488 158 l 421 218 l 196 418 l 104 499 l 69 529 l 104 560 l 196 642 l 421 840 z "},"=":{"ha":956,"x_min":69,"x_max":886,"o":"m 69 643 l 886 643 l 886 440 l 69 440 l 69 643 m 69 382 l 886 382 l 886 179 l 69 179 l 69 382 z "},">":{"ha":557,"x_min":69,"x_max":489,"o":"m 454 560 l 488 529 l 454 499 l 363 418 l 138 218 l 69 158 l 69 429 l 83 442 l 182 529 l 83 617 l 69 629 l 69 900 l 138 840 l 363 642 l 454 560 z "},"?":{"ha":968,"x_min":68,"x_max":899,"o":"m 861 831 q 899 690 899 765 q 861 550 899 615 q 819 493 843 519 q 617 408 736 408 l 453 408 q 396 385 419 408 q 372 329 372 361 q 374 325 372 326 l 375 282 l 171 282 l 169 322 q 169 329 169 326 q 207 468 169 404 q 310 573 244 535 q 453 611 376 611 l 593 611 q 615 613 604 613 q 626 611 621 613 q 676 638 657 615 q 696 690 696 660 q 672 747 696 724 q 617 769 649 769 l 350 769 q 297 747 319 768 q 274 694 275 725 l 271 656 l 69 656 l 71 697 q 107 829 72 768 l 110 835 l 111 835 l 111 835 q 222 940 151 903 q 225 942 222 940 l 226 942 q 231 944 228 943 q 346 972 285 971 l 347 972 q 353 972 350 972 q 360 972 357 972 l 617 972 q 758 934 692 972 q 861 831 824 896 m 358 36 q 340 18 358 36 q 271 0 322 0 q 183 36 219 0 q 147 124 147 72 q 183 211 147 175 q 271 247 219 247 q 358 211 322 247 q 394 124 394 175 q 358 36 394 72 z "},"A":{"ha":1204,"x_min":69,"x_max":1132,"o":"m 100 54 l 400 599 l 524 378 l 325 19 l 314 0 l 69 0 l 100 54 m 1101 54 l 1132 0 l 888 0 l 876 19 l 693 350 l 604 511 l 600 518 l 478 738 l 478 739 l 488 757 l 568 900 l 578 921 l 624 921 l 633 900 l 713 757 l 1101 54 z "},"a":{"ha":1204,"x_min":69,"x_max":1132,"o":"m 100 54 l 400 599 l 524 378 l 325 19 l 314 0 l 69 0 l 100 54 m 1101 54 l 1132 0 l 888 0 l 876 19 l 693 350 l 604 511 l 600 518 l 478 738 l 478 739 l 488 757 l 568 900 l 578 921 l 624 921 l 633 900 l 713 757 l 1101 54 z "},"À":{"ha":1204,"x_min":69,"x_max":1132,"o":"m 100 54 l 400 599 l 524 378 l 325 19 l 314 0 l 69 0 l 100 54 m 1101 54 l 1132 0 l 888 0 l 876 19 l 693 350 l 604 511 l 600 518 l 478 738 l 478 739 l 488 757 l 568 900 l 578 921 l 624 921 l 633 900 l 713 757 l 1101 54 z "},"Á":{"ha":1204,"x_min":69,"x_max":1132,"o":"m 100 54 l 400 599 l 524 378 l 325 19 l 314 0 l 69 0 l 100 54 m 1101 54 l 1132 0 l 888 0 l 876 19 l 693 350 l 604 511 l 600 518 l 478 738 l 478 739 l 488 757 l 568 900 l 578 921 l 624 921 l 633 900 l 713 757 l 1101 54 z "},"Â":{"ha":1204,"x_min":69,"x_max":1132,"o":"m 100 54 l 400 599 l 524 378 l 325 19 l 314 0 l 69 0 l 100 54 m 1101 54 l 1132 0 l 888 0 l 876 19 l 693 350 l 604 511 l 600 518 l 478 738 l 478 739 l 488 757 l 568 900 l 578 921 l 624 921 l 633 900 l 713 757 l 1101 54 z "},"Ã":{"ha":1204,"x_min":69,"x_max":1132,"o":"m 100 54 l 400 599 l 524 378 l 325 19 l 314 0 l 69 0 l 100 54 m 1101 54 l 1132 0 l 888 0 l 876 19 l 693 350 l 604 511 l 600 518 l 478 738 l 478 739 l 488 757 l 568 900 l 578 921 l 624 921 l 633 900 l 713 757 l 1101 54 z "},"Ä":{"ha":1204,"x_min":69,"x_max":1132,"o":"m 100 54 l 400 599 l 524 378 l 325 19 l 314 0 l 69 0 l 100 54 m 1101 54 l 1132 0 l 888 0 l 876 19 l 693 350 l 604 511 l 600 518 l 478 738 l 478 739 l 488 757 l 568 900 l 578 921 l 624 921 l 633 900 l 713 757 l 1101 54 z "},"Å":{"ha":1204,"x_min":69,"x_max":1132,"o":"m 100 54 l 400 599 l 524 378 l 325 19 l 314 0 l 69 0 l 100 54 m 1101 54 l 1132 0 l 888 0 l 876 19 l 693 350 l 604 511 l 600 518 l 478 738 l 478 739 l 488 757 l 568 900 l 578 921 l 624 921 l 633 900 l 713 757 l 1101 54 z "},"à":{"ha":1204,"x_min":69,"x_max":1132,"o":"m 100 54 l 400 599 l 524 378 l 325 19 l 314 0 l 69 0 l 100 54 m 1101 54 l 1132 0 l 888 0 l 876 19 l 693 350 l 604 511 l 600 518 l 478 738 l 478 739 l 488 757 l 568 900 l 578 921 l 624 921 l 633 900 l 713 757 l 1101 54 z "},"á":{"ha":1204,"x_min":69,"x_max":1132,"o":"m 100 54 l 400 599 l 524 378 l 325 19 l 314 0 l 69 0 l 100 54 m 1101 54 l 1132 0 l 888 0 l 876 19 l 693 350 l 604 511 l 600 518 l 478 738 l 478 739 l 488 757 l 568 900 l 578 921 l 624 921 l 633 900 l 713 757 l 1101 54 z "},"â":{"ha":1204,"x_min":69,"x_max":1132,"o":"m 100 54 l 400 599 l 524 378 l 325 19 l 314 0 l 69 0 l 100 54 m 1101 54 l 1132 0 l 888 0 l 876 19 l 693 350 l 604 511 l 600 518 l 478 738 l 478 739 l 488 757 l 568 900 l 578 921 l 624 921 l 633 900 l 713 757 l 1101 54 z "},"ã":{"ha":1204,"x_min":69,"x_max":1132,"o":"m 100 54 l 400 599 l 524 378 l 325 19 l 314 0 l 69 0 l 100 54 m 1101 54 l 1132 0 l 888 0 l 876 19 l 693 350 l 604 511 l 600 518 l 478 738 l 478 739 l 488 757 l 568 900 l 578 921 l 624 921 l 633 900 l 713 757 l 1101 54 z "},"ä":{"ha":1204,"x_min":69,"x_max":1132,"o":"m 100 54 l 400 599 l 524 378 l 325 19 l 314 0 l 69 0 l 100 54 m 1101 54 l 1132 0 l 888 0 l 876 19 l 693 350 l 604 511 l 600 518 l 478 738 l 478 739 l 488 757 l 568 900 l 578 921 l 624 921 l 633 900 l 713 757 l 1101 54 z "},"å":{"ha":1204,"x_min":69,"x_max":1132,"o":"m 100 54 l 400 599 l 524 378 l 325 19 l 314 0 l 69 0 l 100 54 m 1101 54 l 1132 0 l 888 0 l 876 19 l 693 350 l 604 511 l 600 518 l 478 738 l 478 739 l 488 757 l 568 900 l 578 921 l 624 921 l 633 900 l 713 757 l 1101 54 z "},"B":{"ha":967,"x_min":68,"x_max":897,"o":"m 264 361 l 264 197 l 638 197 q 683 228 665 206 q 701 279 701 250 q 683 331 701 308 q 636 361 664 354 l 264 361 m 861 415 q 896 279 896 351 q 861 143 896 207 q 758 39 824 78 q 617 0 693 0 q 585 1 601 0 q 554 0 569 0 l 69 0 l 69 560 l 571 560 q 619 588 600 565 q 638 642 638 611 q 620 692 638 669 q 575 722 603 715 l 264 722 l 69 722 l 69 921 l 554 921 q 693 883 628 921 q 796 781 758 846 q 799 776 797 778 q 833 642 833 714 q 797 506 833 569 q 796 504 797 504 l 796 503 l 796 503 q 792 496 793 499 q 801 488 797 492 q 861 415 838 456 z "},"b":{"ha":967,"x_min":68,"x_max":897,"o":"m 264 361 l 264 197 l 638 197 q 683 228 665 206 q 701 279 701 250 q 683 331 701 308 q 636 361 664 354 l 264 361 m 861 415 q 896 279 896 351 q 861 143 896 207 q 758 39 824 78 q 617 0 693 0 q 585 1 601 0 q 554 0 569 0 l 69 0 l 69 560 l 571 560 q 619 588 600 565 q 638 642 638 611 q 620 692 638 669 q 575 722 603 715 l 264 722 l 69 722 l 69 921 l 554 921 q 693 883 628 921 q 796 781 758 846 q 799 776 797 778 q 833 642 833 714 q 797 506 833 569 q 796 504 797 504 l 796 503 l 796 503 q 792 496 793 499 q 801 488 797 492 q 861 415 838 456 z "},"C":{"ha":1056,"x_min":68,"x_max":986,"o":"m 779 365 l 983 365 l 968 318 q 803 90 922 178 q 529 0 682 0 q 228 113 357 0 q 75 393 99 225 q 69 460 69 426 q 74 525 69 493 q 226 807 97 694 q 529 921 357 921 q 808 826 685 921 q 972 589 931 735 l 986 542 l 783 542 l 774 564 q 676 682 743 638 q 529 726 610 726 q 361 666 435 726 q 269 513 288 606 q 264 460 264 488 q 269 406 264 433 q 363 254 289 314 q 529 194 436 194 q 671 235 606 194 q 769 346 736 276 l 779 365 z "},"c":{"ha":1056,"x_min":68,"x_max":986,"o":"m 779 365 l 983 365 l 968 318 q 803 90 922 178 q 529 0 682 0 q 228 113 357 0 q 75 393 99 225 q 69 460 69 426 q 74 525 69 493 q 226 807 97 694 q 529 921 357 921 q 808 826 685 921 q 972 589 931 735 l 986 542 l 783 542 l 774 564 q 676 682 743 638 q 529 726 610 726 q 361 666 435 726 q 269 513 288 606 q 264 460 264 488 q 269 406 264 433 q 363 254 289 314 q 529 194 436 194 q 671 235 606 194 q 769 346 736 276 l 779 365 z "},"Ç":{"ha":1056,"x_min":68,"x_max":986,"o":"m 779 365 l 983 365 l 968 318 q 803 90 922 178 q 529 0 682 0 q 228 113 357 0 q 75 393 99 225 q 69 460 69 426 q 74 525 69 493 q 226 807 97 694 q 529 921 357 921 q 808 826 685 921 q 972 589 931 735 l 986 542 l 783 542 l 774 564 q 676 682 743 638 q 529 726 610 726 q 361 666 435 726 q 269 513 288 606 q 264 460 264 488 q 269 406 264 433 q 363 254 289 314 q 529 194 436 194 q 671 235 606 194 q 769 346 736 276 l 779 365 z "},"ç":{"ha":1056,"x_min":68,"x_max":986,"o":"m 779 365 l 983 365 l 968 318 q 803 90 922 178 q 529 0 682 0 q 228 113 357 0 q 75 393 99 225 q 69 460 69 426 q 74 525 69 493 q 226 807 97 694 q 529 921 357 921 q 808 826 685 921 q 972 589 931 735 l 986 542 l 783 542 l 774 564 q 676 682 743 638 q 529 726 610 726 q 361 666 435 726 q 269 513 288 606 q 264 460 264 488 q 269 406 264 433 q 363 254 289 314 q 529 194 436 194 q 671 235 606 194 q 769 346 736 276 l 779 365 z "},"D":{"ha":972,"x_min":68,"x_max":904,"o":"m 899 522 q 903 457 903 490 q 899 390 903 424 q 764 128 875 236 q 499 0 653 19 l 497 0 l 69 0 l 69 586 l 264 586 l 264 194 l 483 194 q 626 265 565 207 q 703 403 686 322 q 708 457 708 429 q 703 510 708 483 q 603 669 683 608 q 496 717 554 706 q 456 722 476 721 l 69 722 l 69 918 l 478 917 q 747 801 632 904 q 899 522 875 689 z "},"d":{"ha":972,"x_min":68,"x_max":904,"o":"m 899 522 q 903 457 903 490 q 899 390 903 424 q 764 128 875 236 q 499 0 653 19 l 497 0 l 69 0 l 69 586 l 264 586 l 264 194 l 483 194 q 626 265 565 207 q 703 403 686 322 q 708 457 708 429 q 703 510 708 483 q 603 669 683 608 q 496 717 554 706 q 456 722 476 721 l 69 722 l 69 918 l 478 917 q 747 801 632 904 q 899 522 875 689 z "},"E":{"ha":958,"x_min":69,"x_max":890,"o":"m 69 918 l 889 918 l 889 722 l 69 722 l 69 881 l 69 918 m 264 392 l 264 194 l 889 194 l 889 0 l 69 0 l 69 158 l 69 194 l 69 588 l 264 588 l 807 588 l 807 392 l 264 392 z "},"e":{"ha":958,"x_min":69,"x_max":890,"o":"m 69 918 l 889 918 l 889 722 l 69 722 l 69 881 l 69 918 m 264 392 l 264 194 l 889 194 l 889 0 l 69 0 l 69 158 l 69 194 l 69 588 l 264 588 l 807 588 l 807 392 l 264 392 z "},"È":{"ha":958,"x_min":69,"x_max":890,"o":"m 69 918 l 889 918 l 889 722 l 69 722 l 69 881 l 69 918 m 264 392 l 264 194 l 889 194 l 889 0 l 69 0 l 69 158 l 69 194 l 69 588 l 264 588 l 807 588 l 807 392 l 264 392 z "},"É":{"ha":958,"x_min":69,"x_max":890,"o":"m 69 918 l 889 918 l 889 722 l 69 722 l 69 881 l 69 918 m 264 392 l 264 194 l 889 194 l 889 0 l 69 0 l 69 158 l 69 194 l 69 588 l 264 588 l 807 588 l 807 392 l 264 392 z "},"Ê":{"ha":958,"x_min":69,"x_max":890,"o":"m 69 918 l 889 918 l 889 722 l 69 722 l 69 881 l 69 918 m 264 392 l 264 194 l 889 194 l 889 0 l 69 0 l 69 158 l 69 194 l 69 588 l 264 588 l 807 588 l 807 392 l 264 392 z "},"Ë":{"ha":958,"x_min":69,"x_max":890,"o":"m 69 918 l 889 918 l 889 722 l 69 722 l 69 881 l 69 918 m 264 392 l 264 194 l 889 194 l 889 0 l 69 0 l 69 158 l 69 194 l 69 588 l 264 588 l 807 588 l 807 392 l 264 392 z "},"è":{"ha":958,"x_min":69,"x_max":890,"o":"m 69 918 l 889 918 l 889 722 l 69 722 l 69 881 l 69 918 m 264 392 l 264 194 l 889 194 l 889 0 l 69 0 l 69 158 l 69 194 l 69 588 l 264 588 l 807 588 l 807 392 l 264 392 z "},"é":{"ha":958,"x_min":69,"x_max":890,"o":"m 69 918 l 889 918 l 889 722 l 69 722 l 69 881 l 69 918 m 264 392 l 264 194 l 889 194 l 889 0 l 69 0 l 69 158 l 69 194 l 69 588 l 264 588 l 807 588 l 807 392 l 264 392 z "},"ê":{"ha":958,"x_min":69,"x_max":890,"o":"m 69 918 l 889 918 l 889 722 l 69 722 l 69 881 l 69 918 m 264 392 l 264 194 l 889 194 l 889 0 l 69 0 l 69 158 l 69 194 l 69 588 l 264 588 l 807 588 l 807 392 l 264 392 z "},"ë":{"ha":958,"x_min":69,"x_max":890,"o":"m 69 918 l 889 918 l 889 722 l 69 722 l 69 881 l 69 918 m 264 392 l 264 194 l 889 194 l 889 0 l 69 0 l 69 158 l 69 194 l 69 588 l 264 588 l 807 588 l 807 392 l 264 392 z "},"F":{"ha":958,"x_min":69,"x_max":890,"o":"m 69 550 l 69 588 l 807 588 l 807 392 l 264 392 l 264 0 l 69 0 l 69 392 l 69 550 m 889 722 l 69 722 l 69 918 l 889 918 l 889 722 z "},"f":{"ha":958,"x_min":69,"x_max":890,"o":"m 69 550 l 69 588 l 807 588 l 807 392 l 264 392 l 264 0 l 69 0 l 69 392 l 69 550 m 889 722 l 69 722 l 69 918 l 889 918 l 889 722 z "},"G":{"ha":1008,"x_min":68,"x_max":940,"o":"m 426 585 l 939 585 l 939 390 l 939 0 l 538 0 q 208 132 346 0 q 69 458 69 267 q 208 783 69 650 q 538 915 346 915 l 938 915 l 938 721 l 497 721 q 328 632 396 707 q 261 458 261 557 q 328 285 261 360 q 497 194 396 210 l 744 194 l 744 390 l 517 390 l 507 411 l 450 533 l 426 585 z "},"g":{"ha":1008,"x_min":68,"x_max":940,"o":"m 426 585 l 939 585 l 939 390 l 939 0 l 538 0 q 208 132 346 0 q 69 458 69 267 q 208 783 69 650 q 538 915 346 915 l 938 915 l 938 721 l 497 721 q 328 632 396 707 q 261 458 261 557 q 328 285 261 360 q 497 194 396 210 l 744 194 l 744 390 l 517 390 l 507 411 l 450 533 l 426 585 z "},"H":{"ha":953,"x_min":68,"x_max":882,"o":"m 686 915 l 882 915 l 882 0 l 686 0 l 686 390 l 264 390 l 264 0 l 69 0 l 69 915 l 264 915 l 264 585 l 686 585 l 686 915 z "},"h":{"ha":953,"x_min":68,"x_max":882,"o":"m 686 915 l 882 915 l 882 0 l 686 0 l 686 390 l 264 390 l 264 0 l 69 0 l 69 915 l 264 915 l 264 585 l 686 585 l 686 915 z "},"I":{"ha":333,"x_min":69,"x_max":265,"o":"m 69 919 l 264 919 l 264 0 l 69 0 l 69 919 z "},"i":{"ha":333,"x_min":69,"x_max":265,"o":"m 69 919 l 264 919 l 264 0 l 69 0 l 69 919 z "},"Ì":{"ha":333,"x_min":69,"x_max":265,"o":"m 69 919 l 264 919 l 264 0 l 69 0 l 69 919 z "},"Í":{"ha":333,"x_min":69,"x_max":265,"o":"m 69 919 l 264 919 l 264 0 l 69 0 l 69 919 z "},"Î":{"ha":333,"x_min":69,"x_max":265,"o":"m 69 919 l 264 919 l 264 0 l 69 0 l 69 919 z "},"Ï":{"ha":333,"x_min":69,"x_max":265,"o":"m 69 919 l 264 919 l 264 0 l 69 0 l 69 919 z "},"ì":{"ha":333,"x_min":69,"x_max":265,"o":"m 69 919 l 264 919 l 264 0 l 69 0 l 69 919 z "},"í":{"ha":333,"x_min":69,"x_max":265,"o":"m 69 919 l 264 919 l 264 0 l 69 0 l 69 919 z "},"î":{"ha":333,"x_min":69,"x_max":265,"o":"m 69 919 l 264 919 l 264 0 l 69 0 l 69 919 z "},"ï":{"ha":333,"x_min":69,"x_max":265,"o":"m 69 919 l 264 919 l 264 0 l 69 0 l 69 919 z "},"J":{"ha":854,"x_min":69,"x_max":785,"o":"m 589 921 l 785 921 l 785 232 l 779 222 q 647 82 728 138 q 385 0 529 0 q 214 32 296 0 q 82 114 142 61 l 69 125 l 69 428 l 264 428 l 264 224 q 385 194 321 194 q 589 292 510 194 l 589 921 z "},"j":{"ha":854,"x_min":69,"x_max":785,"o":"m 589 921 l 785 921 l 785 232 l 779 222 q 647 82 728 138 q 385 0 529 0 q 214 32 296 0 q 82 114 142 61 l 69 125 l 69 428 l 264 428 l 264 224 q 385 194 321 194 q 589 292 510 194 l 589 921 z "},"K":{"ha":1018,"x_min":69,"x_max":949,"o":"m 264 918 l 264 701 l 69 506 l 69 918 l 264 918 m 886 63 l 949 0 l 672 0 l 663 11 l 351 321 l 264 233 l 264 0 l 69 0 l 69 314 l 383 628 l 672 918 l 949 918 l 886 856 l 489 458 l 886 63 z "},"k":{"ha":1018,"x_min":69,"x_max":949,"o":"m 264 918 l 264 701 l 69 506 l 69 918 l 264 918 m 886 63 l 949 0 l 672 0 l 663 11 l 351 321 l 264 233 l 264 0 l 69 0 l 69 314 l 383 628 l 672 918 l 949 918 l 886 856 l 489 458 l 886 63 z "},"L":{"ha":869,"x_min":69,"x_max":800,"o":"m 264 194 l 800 194 l 800 0 l 69 0 l 69 924 l 264 924 l 264 194 z "},"l":{"ha":869,"x_min":69,"x_max":800,"o":"m 264 194 l 800 194 l 800 0 l 69 0 l 69 924 l 264 924 l 264 194 z "},"M":{"ha":967,"x_min":69,"x_max":896,"o":"m 69 0 l 69 506 l 264 310 l 264 0 l 69 0 m 853 924 l 896 924 l 896 0 l 701 0 l 701 496 l 597 393 l 558 353 l 547 342 l 511 307 l 486 281 l 354 413 l 264 501 l 69 697 l 69 924 l 118 924 l 303 739 l 486 557 l 853 924 z "},"m":{"ha":967,"x_min":69,"x_max":896,"o":"m 69 0 l 69 506 l 264 310 l 264 0 l 69 0 m 853 924 l 896 924 l 896 0 l 701 0 l 701 496 l 597 393 l 558 353 l 547 342 l 511 307 l 486 281 l 354 413 l 264 501 l 69 697 l 69 924 l 118 924 l 303 739 l 486 557 l 853 924 z "},"N":{"ha":882,"x_min":68,"x_max":814,"o":"m 69 1 l 69 504 l 264 310 l 264 1 l 69 1 m 618 919 l 813 919 l 813 0 l 767 0 l 629 138 l 397 368 l 264 501 l 69 697 l 69 813 l 69 900 l 69 924 l 118 924 l 618 424 l 618 919 z "},"n":{"ha":882,"x_min":68,"x_max":814,"o":"m 69 1 l 69 504 l 264 310 l 264 1 l 69 1 m 618 919 l 813 919 l 813 0 l 767 0 l 629 138 l 397 368 l 264 501 l 69 697 l 69 813 l 69 900 l 69 924 l 118 924 l 618 424 l 618 919 z "},"Ñ":{"ha":882,"x_min":68,"x_max":814,"o":"m 69 1 l 69 504 l 264 310 l 264 1 l 69 1 m 618 919 l 813 919 l 813 0 l 767 0 l 629 138 l 397 368 l 264 501 l 69 697 l 69 813 l 69 900 l 69 924 l 118 924 l 618 424 l 618 919 z "},"ñ":{"ha":882,"x_min":68,"x_max":814,"o":"m 69 1 l 69 504 l 264 310 l 264 1 l 69 1 m 618 919 l 813 919 l 813 0 l 767 0 l 629 138 l 397 368 l 264 501 l 69 697 l 69 813 l 69 900 l 69 924 l 118 924 l 618 424 l 618 919 z "},"O":{"ha":1054,"x_min":69,"x_max":985,"o":"m 297 853 q 350 883 297 853 q 526 914 403 914 q 756 853 650 914 q 922 686 861 792 q 983 457 983 581 q 922 228 983 333 q 756 61 861 122 q 526 0 650 0 q 297 61 403 0 q 131 228 192 122 q 69 457 69 333 q 131 686 69 581 q 297 853 192 792 m 715 269 q 754 308 715 269 q 793 457 793 347 q 715 645 793 567 q 526 724 636 724 q 338 645 417 724 q 260 457 260 567 q 338 269 260 347 q 526 190 417 190 q 715 269 636 190 z "},"o":{"ha":1054,"x_min":69,"x_max":985,"o":"m 297 853 q 350 883 297 853 q 526 914 403 914 q 756 853 650 914 q 922 686 861 792 q 983 457 983 581 q 922 228 983 333 q 756 61 861 122 q 526 0 650 0 q 297 61 403 0 q 131 228 192 122 q 69 457 69 333 q 131 686 69 581 q 297 853 192 792 m 715 269 q 754 308 715 269 q 793 457 793 347 q 715 645 793 567 q 526 724 636 724 q 338 645 417 724 q 260 457 260 567 q 338 269 260 347 q 526 190 417 190 q 715 269 636 190 z "},"Ò":{"ha":1054,"x_min":69,"x_max":985,"o":"m 297 853 q 350 883 297 853 q 526 914 403 914 q 756 853 650 914 q 922 686 861 792 q 983 457 983 581 q 922 228 983 333 q 756 61 861 122 q 526 0 650 0 q 297 61 403 0 q 131 228 192 122 q 69 457 69 333 q 131 686 69 581 q 297 853 192 792 m 715 269 q 754 308 715 269 q 793 457 793 347 q 715 645 793 567 q 526 724 636 724 q 338 645 417 724 q 260 457 260 567 q 338 269 260 347 q 526 190 417 190 q 715 269 636 190 z "},"Ó":{"ha":1054,"x_min":69,"x_max":985,"o":"m 297 853 q 350 883 297 853 q 526 914 403 914 q 756 853 650 914 q 922 686 861 792 q 983 457 983 581 q 922 228 983 333 q 756 61 861 122 q 526 0 650 0 q 297 61 403 0 q 131 228 192 122 q 69 457 69 333 q 131 686 69 581 q 297 853 192 792 m 715 269 q 754 308 715 269 q 793 457 793 347 q 715 645 793 567 q 526 724 636 724 q 338 645 417 724 q 260 457 260 567 q 338 269 260 347 q 526 190 417 190 q 715 269 636 190 z "},"Ô":{"ha":1054,"x_min":69,"x_max":985,"o":"m 297 853 q 350 883 297 853 q 526 914 403 914 q 756 853 650 914 q 922 686 861 792 q 983 457 983 581 q 922 228 983 333 q 756 61 861 122 q 526 0 650 0 q 297 61 403 0 q 131 228 192 122 q 69 457 69 333 q 131 686 69 581 q 297 853 192 792 m 715 269 q 754 308 715 269 q 793 457 793 347 q 715 645 793 567 q 526 724 636 724 q 338 645 417 724 q 260 457 260 567 q 338 269 260 347 q 526 190 417 190 q 715 269 636 190 z "},"Õ":{"ha":1054,"x_min":69,"x_max":985,"o":"m 297 853 q 350 883 297 853 q 526 914 403 914 q 756 853 650 914 q 922 686 861 792 q 983 457 983 581 q 922 228 983 333 q 756 61 861 122 q 526 0 650 0 q 297 61 403 0 q 131 228 192 122 q 69 457 69 333 q 131 686 69 581 q 297 853 192 792 m 715 269 q 754 308 715 269 q 793 457 793 347 q 715 645 793 567 q 526 724 636 724 q 338 645 417 724 q 260 457 260 567 q 338 269 260 347 q 526 190 417 190 q 715 269 636 190 z "},"Ö":{"ha":1054,"x_min":69,"x_max":985,"o":"m 297 853 q 350 883 297 853 q 526 914 403 914 q 756 853 650 914 q 922 686 861 792 q 983 457 983 581 q 922 228 983 333 q 756 61 861 122 q 526 0 650 0 q 297 61 403 0 q 131 228 192 122 q 69 457 69 333 q 131 686 69 581 q 297 853 192 792 m 715 269 q 754 308 715 269 q 793 457 793 347 q 715 645 793 567 q 526 724 636 724 q 338 645 417 724 q 260 457 260 567 q 338 269 260 347 q 526 190 417 190 q 715 269 636 190 z "},"Ø":{"ha":1054,"x_min":69,"x_max":985,"o":"m 297 853 q 350 883 297 853 q 526 914 403 914 q 756 853 650 914 q 922 686 861 792 q 983 457 983 581 q 922 228 983 333 q 756 61 861 122 q 526 0 650 0 q 297 61 403 0 q 131 228 192 122 q 69 457 69 333 q 131 686 69 581 q 297 853 192 792 m 715 269 q 754 308 715 269 q 793 457 793 347 q 715 645 793 567 q 526 724 636 724 q 338 645 417 724 q 260 457 260 567 q 338 269 260 347 q 526 190 417 190 q 715 269 636 190 z "},"ò":{"ha":1054,"x_min":69,"x_max":985,"o":"m 297 853 q 350 883 297 853 q 526 914 403 914 q 756 853 650 914 q 922 686 861 792 q 983 457 983 581 q 922 228 983 333 q 756 61 861 122 q 526 0 650 0 q 297 61 403 0 q 131 228 192 122 q 69 457 69 333 q 131 686 69 581 q 297 853 192 792 m 715 269 q 754 308 715 269 q 793 457 793 347 q 715 645 793 567 q 526 724 636 724 q 338 645 417 724 q 260 457 260 567 q 338 269 260 347 q 526 190 417 190 q 715 269 636 190 z "},"ó":{"ha":1054,"x_min":69,"x_max":985,"o":"m 297 853 q 350 883 297 853 q 526 914 403 914 q 756 853 650 914 q 922 686 861 792 q 983 457 983 581 q 922 228 983 333 q 756 61 861 122 q 526 0 650 0 q 297 61 403 0 q 131 228 192 122 q 69 457 69 333 q 131 686 69 581 q 297 853 192 792 m 715 269 q 754 308 715 269 q 793 457 793 347 q 715 645 793 567 q 526 724 636 724 q 338 645 417 724 q 260 457 260 567 q 338 269 260 347 q 526 190 417 190 q 715 269 636 190 z "},"ô":{"ha":1054,"x_min":69,"x_max":985,"o":"m 297 853 q 350 883 297 853 q 526 914 403 914 q 756 853 650 914 q 922 686 861 792 q 983 457 983 581 q 922 228 983 333 q 756 61 861 122 q 526 0 650 0 q 297 61 403 0 q 131 228 192 122 q 69 457 69 333 q 131 686 69 581 q 297 853 192 792 m 715 269 q 754 308 715 269 q 793 457 793 347 q 715 645 793 567 q 526 724 636 724 q 338 645 417 724 q 260 457 260 567 q 338 269 260 347 q 526 190 417 190 q 715 269 636 190 z "},"õ":{"ha":1054,"x_min":69,"x_max":985,"o":"m 297 853 q 350 883 297 853 q 526 914 403 914 q 756 853 650 914 q 922 686 861 792 q 983 457 983 581 q 922 228 983 333 q 756 61 861 122 q 526 0 650 0 q 297 61 403 0 q 131 228 192 122 q 69 457 69 333 q 131 686 69 581 q 297 853 192 792 m 715 269 q 754 308 715 269 q 793 457 793 347 q 715 645 793 567 q 526 724 636 724 q 338 645 417 724 q 260 457 260 567 q 338 269 260 347 q 526 190 417 190 q 715 269 636 190 z "},"ö":{"ha":1054,"x_min":69,"x_max":985,"o":"m 297 853 q 350 883 297 853 q 526 914 403 914 q 756 853 650 914 q 922 686 861 792 q 983 457 983 581 q 922 228 983 333 q 756 61 861 122 q 526 0 650 0 q 297 61 403 0 q 131 228 192 122 q 69 457 69 333 q 131 686 69 581 q 297 853 192 792 m 715 269 q 754 308 715 269 q 793 457 793 347 q 715 645 793 567 q 526 724 636 724 q 338 645 417 724 q 260 457 260 567 q 338 269 260 347 q 526 190 417 190 q 715 269 636 190 z "},"ø":{"ha":1054,"x_min":69,"x_max":985,"o":"m 297 853 q 350 883 297 853 q 526 914 403 914 q 756 853 650 914 q 922 686 861 792 q 983 457 983 581 q 922 228 983 333 q 756 61 861 122 q 526 0 650 0 q 297 61 403 0 q 131 228 192 122 q 69 457 69 333 q 131 686 69 581 q 297 853 192 792 m 715 269 q 754 308 715 269 q 793 457 793 347 q 715 645 793 567 q 526 724 636 724 q 338 645 417 724 q 260 457 260 567 q 338 269 260 347 q 526 190 417 190 q 715 269 636 190 z "},"P":{"ha":890,"x_min":69,"x_max":821,"o":"m 644 903 q 772 808 722 876 q 821 656 821 740 q 751 478 821 553 q 654 413 710 435 q 618 403 653 411 l 579 393 l 264 393 l 264 0 l 69 0 l 69 590 l 264 590 l 264 589 l 560 589 q 607 608 588 589 q 626 656 626 628 q 607 703 626 683 q 560 722 588 722 q 556 722 557 722 l 554 722 l 553 722 l 521 722 l 69 722 l 69 881 l 69 918 l 572 918 q 611 911 593 915 l 644 903 z "},"p":{"ha":890,"x_min":69,"x_max":821,"o":"m 644 903 q 772 808 722 876 q 821 656 821 740 q 751 478 821 553 q 654 413 710 435 q 618 403 653 411 l 579 393 l 264 393 l 264 0 l 69 0 l 69 590 l 264 590 l 264 589 l 560 589 q 607 608 588 589 q 626 656 626 628 q 607 703 626 683 q 560 722 588 722 q 556 722 557 722 l 554 722 l 553 722 l 521 722 l 69 722 l 69 881 l 69 918 l 572 918 q 611 911 593 915 l 644 903 z "},"Q":{"ha":1075,"x_min":69,"x_max":1006,"o":"m 950 56 l 1006 0 l 428 0 q 307 56 369 19 q 207 129 244 92 q 69 460 69 267 q 206 790 69 653 q 537 928 343 928 q 867 790 731 928 q 1004 460 1004 653 q 890 154 1004 286 q 872 133 882 144 l 950 56 m 744 290 q 806 460 806 364 q 727 650 806 571 q 537 729 649 729 q 347 650 425 729 q 268 460 268 571 q 347 270 268 349 q 538 192 425 192 q 604 200 571 192 q 660 221 633 207 q 707 251 685 233 q 744 290 728 269 z "},"q":{"ha":1075,"x_min":69,"x_max":1006,"o":"m 950 56 l 1006 0 l 428 0 q 307 56 369 19 q 207 129 244 92 q 69 460 69 267 q 206 790 69 653 q 537 928 343 928 q 867 790 731 928 q 1004 460 1004 653 q 890 154 1004 286 q 872 133 882 144 l 950 56 m 744 290 q 806 460 806 364 q 727 650 806 571 q 537 729 649 729 q 347 650 425 729 q 268 460 268 571 q 347 270 268 349 q 538 192 425 192 q 604 200 571 192 q 660 221 633 207 q 707 251 685 233 q 744 290 728 269 z "},"R":{"ha":1026,"x_min":68,"x_max":957,"o":"m 924 56 l 957 0 l 729 0 l 718 18 l 482 404 q 464 401 474 403 q 457 400 460 400 q 454 400 456 400 l 453 400 q 444 399 447 399 q 440 397 443 399 q 432 397 435 397 q 421 396 426 396 l 419 396 l 418 396 q 410 394 415 396 q 407 394 407 394 q 399 394 404 394 l 397 394 l 394 394 l 394 394 q 385 394 388 394 l 264 394 l 264 0 l 69 0 l 69 589 l 385 589 q 488 610 439 589 q 490 611 488 610 q 571 665 535 631 q 615 725 597 692 l 488 725 l 69 725 l 69 919 l 840 919 l 843 886 q 844 854 844 869 q 833 754 844 803 q 707 526 804 622 q 690 510 699 518 q 683 506 683 506 q 683 504 683 504 q 675 497 679 501 q 669 493 672 496 q 667 490 668 492 l 665 490 q 660 486 663 488 l 924 56 z "},"r":{"ha":1026,"x_min":68,"x_max":957,"o":"m 924 56 l 957 0 l 729 0 l 718 18 l 482 404 q 464 401 474 403 q 457 400 460 400 q 454 400 456 400 l 453 400 q 444 399 447 399 q 440 397 443 399 q 432 397 435 397 q 421 396 426 396 l 419 396 l 418 396 q 410 394 415 396 q 407 394 407 394 q 399 394 404 394 l 397 394 l 394 394 l 394 394 q 385 394 388 394 l 264 394 l 264 0 l 69 0 l 69 589 l 385 589 q 488 610 439 589 q 490 611 488 610 q 571 665 535 631 q 615 725 597 692 l 488 725 l 69 725 l 69 919 l 840 919 l 843 886 q 844 854 844 869 q 833 754 844 803 q 707 526 804 622 q 690 510 699 518 q 683 506 683 506 q 683 504 683 504 q 675 497 679 501 q 669 493 672 496 q 667 490 668 492 l 665 490 q 660 486 663 488 l 924 56 z "},"S":{"ha":964,"x_min":69,"x_max":894,"o":"m 611 557 q 751 519 686 557 q 853 417 815 481 q 889 278 889 353 q 853 140 889 204 q 751 38 815 75 q 611 0 686 0 l 335 0 q 174 55 244 0 q 79 194 103 110 q 69 265 69 229 l 260 265 q 274 222 260 242 q 311 194 289 203 l 611 194 q 670 219 646 194 q 694 278 694 244 q 670 337 694 313 q 611 361 646 361 l 347 361 q 144 450 226 361 q 106 501 122 474 q 69 640 69 565 q 106 778 69 714 q 208 881 143 843 q 347 918 274 918 l 628 918 q 790 863 719 918 q 885 724 861 808 q 894 653 894 689 l 703 653 q 689 696 703 676 q 653 724 675 715 l 347 724 q 288 699 313 724 q 264 640 264 674 q 288 581 264 606 q 347 557 313 557 l 611 557 z "},"s":{"ha":964,"x_min":69,"x_max":894,"o":"m 611 557 q 751 519 686 557 q 853 417 815 481 q 889 278 889 353 q 853 140 889 204 q 751 38 815 75 q 611 0 686 0 l 335 0 q 174 55 244 0 q 79 194 103 110 q 69 265 69 229 l 260 265 q 274 222 260 242 q 311 194 289 203 l 611 194 q 670 219 646 194 q 694 278 694 244 q 670 337 694 313 q 611 361 646 361 l 347 361 q 144 450 226 361 q 106 501 122 474 q 69 640 69 565 q 106 778 69 714 q 208 881 143 843 q 347 918 274 918 l 628 918 q 790 863 719 918 q 885 724 861 808 q 894 653 894 689 l 703 653 q 689 696 703 676 q 653 724 675 715 l 347 724 q 288 699 313 724 q 264 640 264 674 q 288 581 264 606 q 347 557 313 557 l 611 557 z "},"T":{"ha":965,"x_min":69,"x_max":897,"o":"m 574 0 l 379 0 l 379 586 l 574 586 l 574 0 m 69 918 l 896 918 l 896 722 l 574 722 l 379 722 l 69 722 l 69 918 z "},"t":{"ha":965,"x_min":69,"x_max":897,"o":"m 574 0 l 379 0 l 379 586 l 574 586 l 574 0 m 69 918 l 896 918 l 896 722 l 574 722 l 379 722 l 69 722 l 69 918 z "},"U":{"ha":965,"x_min":68,"x_max":896,"o":"m 700 918 l 896 918 l 896 344 q 819 147 896 229 q 760 93 792 117 q 483 0 636 0 q 206 93 328 0 q 146 147 174 118 q 69 344 69 229 l 69 918 l 264 918 l 264 415 q 326 262 264 326 q 475 194 388 197 q 483 194 479 194 q 490 194 486 194 q 639 262 578 197 q 700 415 700 326 l 700 918 z "},"u":{"ha":965,"x_min":68,"x_max":896,"o":"m 700 918 l 896 918 l 896 344 q 819 147 896 229 q 760 93 792 117 q 483 0 636 0 q 206 93 328 0 q 146 147 174 118 q 69 344 69 229 l 69 918 l 264 918 l 264 415 q 326 262 264 326 q 475 194 388 197 q 483 194 479 194 q 490 194 486 194 q 639 262 578 197 q 700 415 700 326 l 700 918 z "},"Ù":{"ha":965,"x_min":68,"x_max":896,"o":"m 700 918 l 896 918 l 896 344 q 819 147 896 229 q 760 93 792 117 q 483 0 636 0 q 206 93 328 0 q 146 147 174 118 q 69 344 69 229 l 69 918 l 264 918 l 264 415 q 326 262 264 326 q 475 194 388 197 q 483 194 479 194 q 490 194 486 194 q 639 262 578 197 q 700 415 700 326 l 700 918 z "},"Ú":{"ha":965,"x_min":68,"x_max":896,"o":"m 700 918 l 896 918 l 896 344 q 819 147 896 229 q 760 93 792 117 q 483 0 636 0 q 206 93 328 0 q 146 147 174 118 q 69 344 69 229 l 69 918 l 264 918 l 264 415 q 326 262 264 326 q 475 194 388 197 q 483 194 479 194 q 490 194 486 194 q 639 262 578 197 q 700 415 700 326 l 700 918 z "},"Û":{"ha":965,"x_min":68,"x_max":896,"o":"m 700 918 l 896 918 l 896 344 q 819 147 896 229 q 760 93 792 117 q 483 0 636 0 q 206 93 328 0 q 146 147 174 118 q 69 344 69 229 l 69 918 l 264 918 l 264 415 q 326 262 264 326 q 475 194 388 197 q 483 194 479 194 q 490 194 486 194 q 639 262 578 197 q 700 415 700 326 l 700 918 z "},"Ü":{"ha":965,"x_min":68,"x_max":896,"o":"m 700 918 l 896 918 l 896 344 q 819 147 896 229 q 760 93 792 117 q 483 0 636 0 q 206 93 328 0 q 146 147 174 118 q 69 344 69 229 l 69 918 l 264 918 l 264 415 q 326 262 264 326 q 475 194 388 197 q 483 194 479 194 q 490 194 486 194 q 639 262 578 197 q 700 415 700 326 l 700 918 z "},"ù":{"ha":965,"x_min":68,"x_max":896,"o":"m 700 918 l 896 918 l 896 344 q 819 147 896 229 q 760 93 792 117 q 483 0 636 0 q 206 93 328 0 q 146 147 174 118 q 69 344 69 229 l 69 918 l 264 918 l 264 415 q 326 262 264 326 q 475 194 388 197 q 483 194 479 194 q 490 194 486 194 q 639 262 578 197 q 700 415 700 326 l 700 918 z "},"ú":{"ha":965,"x_min":68,"x_max":896,"o":"m 700 918 l 896 918 l 896 344 q 819 147 896 229 q 760 93 792 117 q 483 0 636 0 q 206 93 328 0 q 146 147 174 118 q 69 344 69 229 l 69 918 l 264 918 l 264 415 q 326 262 264 326 q 475 194 388 197 q 483 194 479 194 q 490 194 486 194 q 639 262 578 197 q 700 415 700 326 l 700 918 z "},"û":{"ha":965,"x_min":68,"x_max":896,"o":"m 700 918 l 896 918 l 896 344 q 819 147 896 229 q 760 93 792 117 q 483 0 636 0 q 206 93 328 0 q 146 147 174 118 q 69 344 69 229 l 69 918 l 264 918 l 264 415 q 326 262 264 326 q 475 194 388 197 q 483 194 479 194 q 490 194 486 194 q 639 262 578 197 q 700 415 700 326 l 700 918 z "},"ü":{"ha":965,"x_min":68,"x_max":896,"o":"m 700 918 l 896 918 l 896 344 q 819 147 896 229 q 760 93 792 117 q 483 0 636 0 q 206 93 328 0 q 146 147 174 118 q 69 344 69 229 l 69 918 l 264 918 l 264 415 q 326 262 264 326 q 475 194 388 197 q 483 194 479 194 q 490 194 486 194 q 639 262 578 197 q 700 415 700 326 l 700 918 z "},"V":{"ha":1194,"x_min":69,"x_max":1125,"o":"m 321 906 l 519 546 l 397 326 l 96 869 l 69 918 l 314 918 l 321 906 m 881 918 l 1125 918 l 1099 869 l 625 0 l 572 0 l 474 186 l 597 407 l 597 406 l 619 447 l 660 521 l 874 906 l 881 918 z "},"v":{"ha":1194,"x_min":69,"x_max":1125,"o":"m 321 906 l 519 546 l 397 326 l 96 869 l 69 918 l 314 918 l 321 906 m 881 918 l 1125 918 l 1099 869 l 625 0 l 572 0 l 474 186 l 597 407 l 597 406 l 619 447 l 660 521 l 874 906 l 881 918 z "},"W":{"ha":1488,"x_min":68,"x_max":1419,"o":"m 1204 918 l 1418 918 l 1396 865 l 1086 181 l 1007 0 l 965 0 l 744 496 l 521 0 l 478 0 l 93 865 l 69 918 l 283 918 l 293 896 l 501 432 l 644 747 l 711 896 l 721 918 l 768 918 l 778 896 l 844 747 l 986 432 l 1194 896 l 1204 918 z "},"w":{"ha":1488,"x_min":68,"x_max":1419,"o":"m 1204 918 l 1418 918 l 1396 865 l 1086 181 l 1007 0 l 965 0 l 744 496 l 521 0 l 478 0 l 93 865 l 69 918 l 283 918 l 293 896 l 501 432 l 644 747 l 711 896 l 721 918 l 768 918 l 778 896 l 844 747 l 986 432 l 1194 896 l 1204 918 z "},"X":{"ha":1079,"x_min":69,"x_max":1010,"o":"m 113 58 l 333 358 l 456 194 l 322 15 l 311 0 l 69 0 l 113 58 m 967 58 l 1010 0 l 768 0 l 757 15 l 633 183 l 539 310 l 539 310 l 418 474 l 135 860 l 92 918 l 333 918 l 344 903 l 539 639 l 735 903 l 746 918 l 988 918 l 944 860 l 661 474 l 967 58 z "},"x":{"ha":1079,"x_min":69,"x_max":1010,"o":"m 113 58 l 333 358 l 456 194 l 322 15 l 311 0 l 69 0 l 113 58 m 967 58 l 1010 0 l 768 0 l 757 15 l 633 183 l 539 310 l 539 310 l 418 474 l 135 860 l 92 918 l 333 918 l 344 903 l 539 639 l 735 903 l 746 918 l 988 918 l 944 860 l 661 474 l 967 58 z "},"Y":{"ha":1054,"x_min":68,"x_max":985,"o":"m 743 919 l 985 919 l 942 863 l 642 451 l 632 439 l 632 438 l 632 438 l 625 428 l 625 0 l 429 0 l 429 428 l 422 438 l 422 438 l 422 439 l 413 451 l 113 863 l 69 919 l 311 919 l 322 906 l 526 625 l 732 906 l 743 919 z "},"y":{"ha":1054,"x_min":68,"x_max":985,"o":"m 743 919 l 985 919 l 942 863 l 642 451 l 632 439 l 632 438 l 632 438 l 625 428 l 625 0 l 429 0 l 429 428 l 422 438 l 422 438 l 422 439 l 413 451 l 113 863 l 69 919 l 311 919 l 322 906 l 526 625 l 732 906 l 743 919 z "},"Ý":{"ha":1054,"x_min":68,"x_max":985,"o":"m 743 919 l 985 919 l 942 863 l 642 451 l 632 439 l 632 438 l 632 438 l 625 428 l 625 0 l 429 0 l 429 428 l 422 438 l 422 438 l 422 439 l 413 451 l 113 863 l 69 919 l 311 919 l 322 906 l 526 625 l 732 906 l 743 919 z "},"ý":{"ha":1054,"x_min":68,"x_max":985,"o":"m 743 919 l 985 919 l 942 863 l 642 451 l 632 439 l 632 438 l 632 438 l 625 428 l 625 0 l 429 0 l 429 428 l 422 438 l 422 438 l 422 439 l 413 451 l 113 863 l 69 919 l 311 919 l 322 906 l 526 625 l 732 906 l 743 919 z "},"ÿ":{"ha":1054,"x_min":68,"x_max":985,"o":"m 743 919 l 985 919 l 942 863 l 642 451 l 632 439 l 632 438 l 632 438 l 625 428 l 625 0 l 429 0 l 429 428 l 422 438 l 422 438 l 422 439 l 413 451 l 113 863 l 69 919 l 311 919 l 322 906 l 526 625 l 732 906 l 743 919 z "},"Ÿ":{"ha":1054,"x_min":68,"x_max":985,"o":"m 743 919 l 985 919 l 942 863 l 642 451 l 632 439 l 632 438 l 632 438 l 625 428 l 625 0 l 429 0 l 429 428 l 422 438 l 422 438 l 422 439 l 413 451 l 113 863 l 69 919 l 311 919 l 322 906 l 526 625 l 732 906 l 743 919 z "},"Z":{"ha":1001,"x_min":68,"x_max":932,"o":"m 404 194 l 896 194 l 896 0 l 69 0 l 69 67 l 76 76 l 151 181 l 163 194 l 163 194 l 404 194 m 263 331 l 547 722 l 69 722 l 69 918 l 932 918 l 889 860 l 800 738 l 503 331 l 263 331 z "},"z":{"ha":1001,"x_min":68,"x_max":932,"o":"m 404 194 l 896 194 l 896 0 l 69 0 l 69 67 l 76 76 l 151 181 l 163 194 l 163 194 l 404 194 m 263 331 l 547 722 l 69 722 l 69 918 l 932 918 l 889 860 l 800 738 l 503 331 l 263 331 z "},"[":{"ha":490,"x_min":69,"x_max":421,"o":"m 69 921 l 421 921 l 421 718 l 272 718 l 272 203 l 421 203 l 421 0 l 69 0 l 69 921 z "},"]":{"ha":490,"x_min":69,"x_max":421,"o":"m 69 921 l 421 921 l 421 0 l 69 0 l 69 203 l 217 203 l 217 718 l 69 718 l 69 921 z "},"^":{"ha":629,"x_min":68,"x_max":560,"o":"m 500 583 l 560 515 l 361 515 l 349 529 l 314 568 l 279 529 l 268 515 l 69 515 l 129 583 l 239 707 l 285 757 l 314 792 l 344 757 l 390 707 l 500 583 z "},"|":{"ha":342,"x_min":69,"x_max":274,"o":"m 69 919 l 272 919 l 272 0 l 69 0 l 69 919 z "}," ":{"ha":600,"x_min":0,"x_max":0,"o":""},"­":{"ha":0,"x_min":0,"x_max":0,"o":""}}}
